<svg id="my-svg" width="100%" xmlns="http://www.w3.org/2000/svg" xmlns:xlink="http://www.w3.org/1999/xlink" class="flowchart" style="max-width: 1192.72px; background-color: white;" viewBox="0 0 1192.71875 1350" role="graphics-document document" aria-roledescription="flowchart-v2"><style>#my-svg{font-family:"trebuchet ms",verdana,arial,sans-serif;font-size:16px;fill:#333;}@keyframes edge-animation-frame{from{stroke-dashoffset:0;}}@keyframes dash{to{stroke-dashoffset:0;}}#my-svg .edge-animation-slow{stroke-dasharray:9,5!important;stroke-dashoffset:900;animation:dash 50s linear infinite;stroke-linecap:round;}#my-svg .edge-animation-fast{stroke-dasharray:9,5!important;stroke-dashoffset:900;animation:dash 20s linear infinite;stroke-linecap:round;}#my-svg .error-icon{fill:#552222;}#my-svg .error-text{fill:#552222;stroke:#552222;}#my-svg .edge-thickness-normal{stroke-width:1px;}#my-svg .edge-thickness-thick{stroke-width:3.5px;}#my-svg .edge-pattern-solid{stroke-dasharray:0;}#my-svg .edge-thickness-invisible{stroke-width:0;fill:none;}#my-svg .edge-pattern-dashed{stroke-dasharray:3;}#my-svg .edge-pattern-dotted{stroke-dasharray:2;}#my-svg .marker{fill:#333333;stroke:#333333;}#my-svg .marker.cross{stroke:#333333;}#my-svg svg{font-family:"trebuchet ms",verdana,arial,sans-serif;font-size:16px;}#my-svg p{margin:0;}#my-svg .label{font-family:"trebuchet ms",verdana,arial,sans-serif;color:#333;}#my-svg .cluster-label text{fill:#333;}#my-svg .cluster-label span{color:#333;}#my-svg .cluster-label span p{background-color:transparent;}#my-svg .label text,#my-svg span{fill:#333;color:#333;}#my-svg .node rect,#my-svg .node circle,#my-svg .node ellipse,#my-svg .node polygon,#my-svg .node path{fill:#ECECFF;stroke:#9370DB;stroke-width:1px;}#my-svg .rough-node .label text,#my-svg .node .label text,#my-svg .image-shape .label,#my-svg .icon-shape .label{text-anchor:middle;}#my-svg .node .katex path{fill:#000;stroke:#000;stroke-width:1px;}#my-svg .rough-node .label,#my-svg .node .label,#my-svg .image-shape .label,#my-svg .icon-shape .label{text-align:center;}#my-svg .node.clickable{cursor:pointer;}#my-svg .root .anchor path{fill:#333333!important;stroke-width:0;stroke:#333333;}#my-svg .arrowheadPath{fill:#333333;}#my-svg .edgePath .path{stroke:#333333;stroke-width:2.0px;}#my-svg .flowchart-link{stroke:#333333;fill:none;}#my-svg .edgeLabel{background-color:rgba(232,232,232, 0.8);text-align:center;}#my-svg .edgeLabel p{background-color:rgba(232,232,232, 0.8);}#my-svg .edgeLabel rect{opacity:0.5;background-color:rgba(232,232,232, 0.8);fill:rgba(232,232,232, 0.8);}#my-svg .labelBkg{background-color:rgba(232, 232, 232, 0.5);}#my-svg .cluster rect{fill:#ffffde;stroke:#aaaa33;stroke-width:1px;}#my-svg .cluster text{fill:#333;}#my-svg .cluster span{color:#333;}#my-svg div.mermaidTooltip{position:absolute;text-align:center;max-width:200px;padding:2px;font-family:"trebuchet ms",verdana,arial,sans-serif;font-size:12px;background:hsl(80, 100%, 96.2745098039%);border:1px solid #aaaa33;border-radius:2px;pointer-events:none;z-index:100;}#my-svg .flowchartTitleText{text-anchor:middle;font-size:18px;fill:#333;}#my-svg rect.text{fill:none;stroke-width:0;}#my-svg .icon-shape,#my-svg .image-shape{background-color:rgba(232,232,232, 0.8);text-align:center;}#my-svg .icon-shape p,#my-svg .image-shape p{background-color:rgba(232,232,232, 0.8);padding:2px;}#my-svg .icon-shape .label rect,#my-svg .image-shape .label rect{opacity:0.5;background-color:rgba(232,232,232, 0.8);fill:rgba(232,232,232, 0.8);}#my-svg .label-icon{display:inline-block;height:1em;overflow:visible;vertical-align:-0.125em;}#my-svg .node .label-icon path{fill:currentColor;stroke:revert;stroke-width:revert;}#my-svg :root{--mermaid-font-family:"trebuchet ms",verdana,arial,sans-serif;}</style><g><marker id="my-svg_flowchart-v2-pointEnd" class="marker flowchart-v2" viewBox="0 0 10 10" refX="5" refY="5" markerUnits="userSpaceOnUse" markerWidth="8" markerHeight="8" orient="auto"><path d="M 0 0 L 10 5 L 0 10 z" class="arrowMarkerPath" style="stroke-width: 1; stroke-dasharray: 1, 0;"/></marker><marker id="my-svg_flowchart-v2-pointStart" class="marker flowchart-v2" viewBox="0 0 10 10" refX="4.5" refY="5" markerUnits="userSpaceOnUse" markerWidth="8" markerHeight="8" orient="auto"><path d="M 0 5 L 10 10 L 10 0 z" class="arrowMarkerPath" style="stroke-width: 1; stroke-dasharray: 1, 0;"/></marker><marker id="my-svg_flowchart-v2-circleEnd" class="marker flowchart-v2" viewBox="0 0 10 10" refX="11" refY="5" markerUnits="userSpaceOnUse" markerWidth="11" markerHeight="11" orient="auto"><circle cx="5" cy="5" r="5" class="arrowMarkerPath" style="stroke-width: 1; stroke-dasharray: 1, 0;"/></marker><marker id="my-svg_flowchart-v2-circleStart" class="marker flowchart-v2" viewBox="0 0 10 10" refX="-1" refY="5" markerUnits="userSpaceOnUse" markerWidth="11" markerHeight="11" orient="auto"><circle cx="5" cy="5" r="5" class="arrowMarkerPath" style="stroke-width: 1; stroke-dasharray: 1, 0;"/></marker><marker id="my-svg_flowchart-v2-crossEnd" class="marker cross flowchart-v2" viewBox="0 0 11 11" refX="12" refY="5.2" markerUnits="userSpaceOnUse" markerWidth="11" markerHeight="11" orient="auto"><path d="M 1,1 l 9,9 M 10,1 l -9,9" class="arrowMarkerPath" style="stroke-width: 2; stroke-dasharray: 1, 0;"/></marker><marker id="my-svg_flowchart-v2-crossStart" class="marker cross flowchart-v2" viewBox="0 0 11 11" refX="-1" refY="5.2" markerUnits="userSpaceOnUse" markerWidth="11" markerHeight="11" orient="auto"><path d="M 1,1 l 9,9 M 10,1 l -9,9" class="arrowMarkerPath" style="stroke-width: 2; stroke-dasharray: 1, 0;"/></marker><g class="root"><g class="clusters"/><g class="edgePaths"><path d="M731.374,110L725.049,114.167C718.723,118.333,706.073,126.667,699.747,134.333C693.422,142,693.422,149,693.422,152.5L693.422,156" id="L_B01_B02_0" class="edge-thickness-normal edge-pattern-solid edge-thickness-normal edge-pattern-solid flowchart-link" style=";" data-edge="true" data-et="edge" data-id="L_B01_B02_0" data-points="W3sieCI6NzMxLjM3NDE3NzYzMTU3OSwieSI6MTEwfSx7IngiOjY5My40MjE4NzUsInkiOjEzNX0seyJ4Ijo2OTMuNDIxODc1LCJ5IjoxNjB9XQ==" marker-end="url(#my-svg_flowchart-v2-pointEnd)"/><path d="M614.292,214L602.081,218.167C589.869,222.333,565.446,230.667,553.235,238.333C541.023,246,541.023,253,541.023,256.5L541.023,260" id="L_B02_B03_0" class="edge-thickness-normal edge-pattern-solid edge-thickness-normal edge-pattern-solid flowchart-link" style=";" data-edge="true" data-et="edge" data-id="L_B02_B03_0" data-points="W3sieCI6NjE0LjI5MTkxNzA2NzMwNzcsInkiOjIxNH0seyJ4Ijo1NDEuMDIzNDM3NSwieSI6MjM5fSx7IngiOjU0MS4wMjM0Mzc1LCJ5IjoyNjR9XQ==" marker-end="url(#my-svg_flowchart-v2-pointEnd)"/><path d="M485.626,318L477.077,322.167C468.528,326.333,451.43,334.667,442.881,342.333C434.332,350,434.332,357,434.332,360.5L434.332,364" id="L_B03_B04_0" class="edge-thickness-normal edge-pattern-solid edge-thickness-normal edge-pattern-solid flowchart-link" style=";" data-edge="true" data-et="edge" data-id="L_B03_B04_0" data-points="W3sieCI6NDg1LjYyNTk3NjU2MjUsInkiOjMxOH0seyJ4Ijo0MzQuMzMyMDMxMjUsInkiOjM0M30seyJ4Ijo0MzQuMzMyMDMxMjUsInkiOjM2OH1d" marker-end="url(#my-svg_flowchart-v2-pointEnd)"/><path d="M434.332,422L434.332,426.167C434.332,430.333,434.332,438.667,434.332,446.333C434.332,454,434.332,461,434.332,464.5L434.332,468" id="L_B04_B05_0" class="edge-thickness-normal edge-pattern-solid edge-thickness-normal edge-pattern-solid flowchart-link" style=";" data-edge="true" data-et="edge" data-id="L_B04_B05_0" data-points="W3sieCI6NDM0LjMzMjAzMTI1LCJ5Ijo0MjJ9LHsieCI6NDM0LjMzMjAzMTI1LCJ5Ijo0NDd9LHsieCI6NDM0LjMzMjAzMTI1LCJ5Ijo0NzJ9XQ==" marker-end="url(#my-svg_flowchart-v2-pointEnd)"/><path d="M394.859,550L388.617,556.167C382.376,562.333,369.893,574.667,363.652,586.333C357.41,598,357.41,609,357.41,614.5L357.41,620" id="L_B05_B06_0" class="edge-thickness-normal edge-pattern-solid edge-thickness-normal edge-pattern-solid flowchart-link" style=";" data-edge="true" data-et="edge" data-id="L_B05_B06_0" data-points="W3sieCI6Mzk0Ljg1ODk2MzgxNTc4OTUsInkiOjU1MH0seyJ4IjozNTcuNDEwMTU2MjUsInkiOjU4N30seyJ4IjozNTcuNDEwMTU2MjUsInkiOjYyNH1d" marker-end="url(#my-svg_flowchart-v2-pointEnd)"/><path d="M286.779,678L270.647,684.167C254.515,690.333,222.252,702.667,198.792,714.588C175.332,726.51,160.676,738.02,153.347,743.775L146.019,749.529" id="L_B06_B07_0" class="edge-thickness-normal edge-pattern-solid edge-thickness-normal edge-pattern-solid flowchart-link" style=";" data-edge="true" data-et="edge" data-id="L_B06_B07_0" data-points="W3sieCI6Mjg2Ljc3OTA1MjczNDM3NSwieSI6Njc4fSx7IngiOjE4OS45ODgyODEyNSwieSI6NzE1fSx7IngiOjE0Mi44NzMzNTIwNTA3ODEyNSwieSI6NzUyfV0=" marker-end="url(#my-svg_flowchart-v2-pointEnd)"/><path d="M658.422,301.888L732.303,308.74C806.185,315.592,953.948,329.296,1027.829,344.815C1101.711,360.333,1101.711,377.667,1101.711,395C1101.711,412.333,1101.711,429.667,1101.711,449C1101.711,468.333,1101.711,489.667,1101.711,513C1101.711,536.333,1101.711,561.667,1101.711,585C1101.711,608.333,1101.711,629.667,1101.711,651C1101.711,672.333,1101.711,693.667,1101.711,715C1101.711,736.333,1101.711,757.667,1101.711,779C1101.711,800.333,1101.711,821.667,1101.711,843C1101.711,864.333,1101.711,885.667,1101.711,907C1101.711,928.333,1101.711,949.667,1101.711,971C1101.711,992.333,1101.711,1013.667,1101.711,1035C1101.711,1056.333,1101.711,1077.667,1101.711,1099C1101.711,1120.333,1101.711,1141.667,1101.711,1163C1101.711,1184.333,1101.711,1205.667,1085.62,1222.269C1069.53,1238.872,1037.348,1250.744,1021.257,1256.68L1005.167,1262.616" id="L_B03_X06_0" class="edge-thickness-normal edge-pattern-solid edge-thickness-normal edge-pattern-solid flowchart-link" style=";" data-edge="true" data-et="edge" data-id="L_B03_X06_0" data-points="W3sieCI6NjU4LjQyMTg3NSwieSI6MzAxLjg4NzkxNjYyMDIyMDd9LHsieCI6MTEwMS43MTA5Mzc1LCJ5IjozNDN9LHsieCI6MTEwMS43MTA5Mzc1LCJ5IjozOTV9LHsieCI6MTEwMS43MTA5Mzc1LCJ5Ijo0NDd9LHsieCI6MTEwMS43MTA5Mzc1LCJ5Ijo1MTF9LHsieCI6MTEwMS43MTA5Mzc1LCJ5Ijo1ODd9LHsieCI6MTEwMS43MTA5Mzc1LCJ5Ijo2NTF9LHsieCI6MTEwMS43MTA5Mzc1LCJ5Ijo3MTV9LHsieCI6MTEwMS43MTA5Mzc1LCJ5Ijo3Nzl9LHsieCI6MTEwMS43MTA5Mzc1LCJ5Ijo4NDN9LHsieCI6MTEwMS43MTA5Mzc1LCJ5Ijo5MDd9LHsieCI6MTEwMS43MTA5Mzc1LCJ5Ijo5NzF9LHsieCI6MTEwMS43MTA5Mzc1LCJ5IjoxMDM1fSx7IngiOjExMDEuNzEwOTM3NSwieSI6MTA5OX0seyJ4IjoxMTAxLjcxMDkzNzUsInkiOjExNjN9LHsieCI6MTEwMS43MTA5Mzc1LCJ5IjoxMjI3fSx7IngiOjEwMDEuNDEzODU2OTA3ODk0OCwieSI6MTI2NH1d" marker-end="url(#my-svg_flowchart-v2-pointEnd)"/><path d="M529.973,403.812L608.094,411.01C686.216,418.208,842.46,432.604,920.581,450.469C998.703,468.333,998.703,489.667,998.703,513C998.703,536.333,998.703,561.667,998.703,585C998.703,608.333,998.703,629.667,998.703,651C998.703,672.333,998.703,693.667,998.703,715C998.703,736.333,998.703,757.667,998.703,779C998.703,800.333,998.703,821.667,998.703,843C998.703,864.333,998.703,885.667,998.703,907C998.703,928.333,998.703,949.667,998.703,971C998.703,992.333,998.703,1013.667,998.703,1035C998.703,1056.333,998.703,1077.667,998.703,1099C998.703,1120.333,998.703,1141.667,998.703,1163C998.703,1184.333,998.703,1205.667,990.881,1222.104C983.06,1238.542,967.417,1250.083,959.595,1255.854L951.773,1261.625" id="L_B04_X06_0" class="edge-thickness-normal edge-pattern-solid edge-thickness-normal edge-pattern-solid flowchart-link" style=";" data-edge="true" data-et="edge" data-id="L_B04_X06_0" data-points="W3sieCI6NTI5Ljk3MjY1NjI1LCJ5Ijo0MDMuODEyMTMxODY2OTE0OX0seyJ4Ijo5OTguNzAzMTI1LCJ5Ijo0NDd9LHsieCI6OTk4LjcwMzEyNSwieSI6NTExfSx7IngiOjk5OC43MDMxMjUsInkiOjU4N30seyJ4Ijo5OTguNzAzMTI1LCJ5Ijo2NTF9LHsieCI6OTk4LjcwMzEyNSwieSI6NzE1fSx7IngiOjk5OC43MDMxMjUsInkiOjc3OX0seyJ4Ijo5OTguNzAzMTI1LCJ5Ijo4NDN9LHsieCI6OTk4LjcwMzEyNSwieSI6OTA3fSx7IngiOjk5OC43MDMxMjUsInkiOjk3MX0seyJ4Ijo5OTguNzAzMTI1LCJ5IjoxMDM1fSx7IngiOjk5OC43MDMxMjUsInkiOjEwOTl9LHsieCI6OTk4LjcwMzEyNSwieSI6MTE2M30seyJ4Ijo5OTguNzAzMTI1LCJ5IjoxMjI3fSx7IngiOjk0OC41NTQ1ODQ3MDM5NDc0LCJ5IjoxMjY0fV0=" marker-end="url(#my-svg_flowchart-v2-pointEnd)"/><path d="M344.149,678L341.12,684.167C338.092,690.333,332.034,702.667,329.005,714.333C325.977,726,325.977,737,325.977,742.5L325.977,748" id="L_B06_X17_0" class="edge-thickness-normal edge-pattern-solid edge-thickness-normal edge-pattern-solid flowchart-link" style=";" data-edge="true" data-et="edge" data-id="L_B06_X17_0" data-points="W3sieCI6MzQ0LjE0OTEwODg4NjcxODc1LCJ5Ijo2Nzh9LHsieCI6MzI1Ljk3NjU2MjUsInkiOjcxNX0seyJ4IjozMjUuOTc2NTYyNSwieSI6NzUyfV0=" marker-end="url(#my-svg_flowchart-v2-pointEnd)"/><path d="M476.254,665.13L546.161,673.442C616.068,681.753,755.882,698.377,825.788,717.355C895.695,736.333,895.695,757.667,895.695,779C895.695,800.333,895.695,821.667,895.695,843C895.695,864.333,895.695,885.667,895.695,907C895.695,928.333,895.695,949.667,895.695,971C895.695,992.333,895.695,1013.667,895.695,1035C895.695,1056.333,895.695,1077.667,895.695,1099C895.695,1120.333,895.695,1141.667,895.695,1163C895.695,1184.333,895.695,1205.667,895.695,1221.833C895.695,1238,895.695,1249,895.695,1254.5L895.695,1260" id="L_B06_X06_0" class="edge-thickness-normal edge-pattern-solid edge-thickness-normal edge-pattern-solid flowchart-link" style=";" data-edge="true" data-et="edge" data-id="L_B06_X06_0" data-points="W3sieCI6NDc2LjI1MzkwNjI1LCJ5Ijo2NjUuMTMwMDU3MTExMzQxN30seyJ4Ijo4OTUuNjk1MzEyNSwieSI6NzE1fSx7IngiOjg5NS42OTUzMTI1LCJ5Ijo3Nzl9LHsieCI6ODk1LjY5NTMxMjUsInkiOjg0M30seyJ4Ijo4OTUuNjk1MzEyNSwieSI6OTA3fSx7IngiOjg5NS42OTUzMTI1LCJ5Ijo5NzF9LHsieCI6ODk1LjY5NTMxMjUsInkiOjEwMzV9LHsieCI6ODk1LjY5NTMxMjUsInkiOjEwOTl9LHsieCI6ODk1LjY5NTMxMjUsInkiOjExNjN9LHsieCI6ODk1LjY5NTMxMjUsInkiOjEyMjd9LHsieCI6ODk1LjY5NTMxMjUsInkiOjEyNjR9XQ==" marker-end="url(#my-svg_flowchart-v2-pointEnd)"/><path d="M104.273,752L103.31,745.833C102.346,739.667,100.419,727.333,99.456,710.5C98.492,693.667,98.492,672.333,98.492,651C98.492,629.667,98.492,608.333,98.492,585C98.492,561.667,98.492,536.333,98.492,513C98.492,489.667,98.492,468.333,137.867,451.57C177.241,434.807,255.99,422.614,295.364,416.517L334.739,410.421" id="L_B07_B04_0" class="edge-thickness-normal edge-pattern-solid edge-thickness-normal edge-pattern-solid flowchart-link" style=";" data-edge="true" data-et="edge" data-id="L_B07_B04_0" data-points="W3sieCI6MTA0LjI3MzQzNzUsInkiOjc1Mn0seyJ4Ijo5OC40OTIxODc1LCJ5Ijo3MTV9LHsieCI6OTguNDkyMTg3NSwieSI6NjUxfSx7IngiOjk4LjQ5MjE4NzUsInkiOjU4N30seyJ4Ijo5OC40OTIxODc1LCJ5Ijo1MTF9LHsieCI6OTguNDkyMTg3NSwieSI6NDQ3fSx7IngiOjMzOC42OTE0MDYyNSwieSI6NDA5LjgwODU4Mzg5MDY2NTl9XQ==" marker-end="url(#my-svg_flowchart-v2-pointEnd)"/><path d="M104.273,806L103.31,812.167C102.346,818.333,100.419,830.667,99.456,847.5C98.492,864.333,98.492,885.667,98.492,907C98.492,928.333,98.492,949.667,96.683,965.866C94.873,982.066,91.254,993.132,89.445,998.665L87.636,1004.198" id="L_B07_X20_0" class="edge-thickness-normal edge-pattern-solid edge-thickness-normal edge-pattern-solid flowchart-link" style=";" data-edge="true" data-et="edge" data-id="L_B07_X20_0" data-points="W3sieCI6MTA0LjI3MzQzNzUsInkiOjgwNn0seyJ4Ijo5OC40OTIxODc1LCJ5Ijo4NDN9LHsieCI6OTguNDkyMTg3NSwieSI6OTA3fSx7IngiOjk4LjQ5MjE4NzUsInkiOjk3MX0seyJ4Ijo4Ni4zOTIyMTE5MTQwNjI1LCJ5IjoxMDA4fV0=" marker-end="url(#my-svg_flowchart-v2-pointEnd)"/><path d="M853.689,110L857.357,114.167C861.025,118.333,868.36,126.667,872.028,139.5C875.695,152.333,875.695,169.667,875.695,187C875.695,204.333,875.695,221.667,875.695,239C875.695,256.333,875.695,273.667,875.695,291C875.695,308.333,875.695,325.667,875.695,343C875.695,360.333,875.695,377.667,875.695,395C875.695,412.333,875.695,429.667,875.695,449C875.695,468.333,875.695,489.667,875.695,513C875.695,536.333,875.695,561.667,875.695,585C875.695,608.333,875.695,629.667,875.695,651C875.695,672.333,875.695,693.667,875.695,715C875.695,736.333,875.695,757.667,875.695,779C875.695,800.333,875.695,821.667,865.967,838.158C856.239,854.648,836.783,866.297,827.055,872.121L817.327,877.945" id="L_B01_X19_0" class="edge-thickness-normal edge-pattern-dotted edge-thickness-normal edge-pattern-solid flowchart-link" style=";" data-edge="true" data-et="edge" data-id="L_B01_X19_0" data-points="W3sieCI6ODUzLjY4OTI0NzUzMjg5NDgsInkiOjExMH0seyJ4Ijo4NzUuNjk1MzEyNSwieSI6MTM1fSx7IngiOjg3NS42OTUzMTI1LCJ5IjoxODd9LHsieCI6ODc1LjY5NTMxMjUsInkiOjIzOX0seyJ4Ijo4NzUuNjk1MzEyNSwieSI6MjkxfSx7IngiOjg3NS42OTUzMTI1LCJ5IjozNDN9LHsieCI6ODc1LjY5NTMxMjUsInkiOjM5NX0seyJ4Ijo4NzUuNjk1MzEyNSwieSI6NDQ3fSx7IngiOjg3NS42OTUzMTI1LCJ5Ijo1MTF9LHsieCI6ODc1LjY5NTMxMjUsInkiOjU4N30seyJ4Ijo4NzUuNjk1MzEyNSwieSI6NjUxfSx7IngiOjg3NS42OTUzMTI1LCJ5Ijo3MTV9LHsieCI6ODc1LjY5NTMxMjUsInkiOjc3OX0seyJ4Ijo4NzUuNjk1MzEyNSwieSI6ODQzfSx7IngiOjgxMy44OTQ2NTMzMjAzMTI1LCJ5Ijo4ODB9XQ==" marker-end="url(#my-svg_flowchart-v2-pointEnd)"/><path d="M746.602,214L754.809,218.167C763.016,222.333,779.43,230.667,787.637,243.5C795.844,256.333,795.844,273.667,795.844,291C795.844,308.333,795.844,325.667,795.844,343C795.844,360.333,795.844,377.667,795.844,395C795.844,412.333,795.844,429.667,795.844,449C795.844,468.333,795.844,489.667,795.844,513C795.844,536.333,795.844,561.667,795.844,585C795.844,608.333,795.844,629.667,795.844,651C795.844,672.333,795.844,693.667,795.844,715C795.844,736.333,795.844,757.667,795.844,779C795.844,800.333,795.844,821.667,793.497,837.886C791.151,854.105,786.457,865.21,784.111,870.763L781.764,876.316" id="L_B02_X19_0" class="edge-thickness-normal edge-pattern-dotted edge-thickness-normal edge-pattern-solid flowchart-link" style=";" data-edge="true" data-et="edge" data-id="L_B02_X19_0" data-points="W3sieCI6NzQ2LjYwMjQ2Mzk0MjMwNzcsInkiOjIxNH0seyJ4Ijo3OTUuODQzNzUsInkiOjIzOX0seyJ4Ijo3OTUuODQzNzUsInkiOjI5MX0seyJ4Ijo3OTUuODQzNzUsInkiOjM0M30seyJ4Ijo3OTUuODQzNzUsInkiOjM5NX0seyJ4Ijo3OTUuODQzNzUsInkiOjQ0N30seyJ4Ijo3OTUuODQzNzUsInkiOjUxMX0seyJ4Ijo3OTUuODQzNzUsInkiOjU4N30seyJ4Ijo3OTUuODQzNzUsInkiOjY1MX0seyJ4Ijo3OTUuODQzNzUsInkiOjcxNX0seyJ4Ijo3OTUuODQzNzUsInkiOjc3OX0seyJ4Ijo3OTUuODQzNzUsInkiOjg0M30seyJ4Ijo3ODAuMjA3Mjc1MzkwNjI1LCJ5Ijo4ODB9XQ==" marker-end="url(#my-svg_flowchart-v2-pointEnd)"/><path d="M626.329,318L639.494,322.167C652.658,326.333,678.987,334.667,692.152,347.5C705.316,360.333,705.316,377.667,705.316,395C705.316,412.333,705.316,429.667,705.316,449C705.316,468.333,705.316,489.667,705.316,513C705.316,536.333,705.316,561.667,705.316,585C705.316,608.333,705.316,629.667,705.316,651C705.316,672.333,705.316,693.667,705.316,715C705.316,736.333,705.316,757.667,705.316,779C705.316,800.333,705.316,821.667,710.964,838.027C716.611,854.387,727.905,865.773,733.552,871.467L739.199,877.16" id="L_B03_X19_0" class="edge-thickness-normal edge-pattern-dotted edge-thickness-normal edge-pattern-solid flowchart-link" style=";" data-edge="true" data-et="edge" data-id="L_B03_X19_0" data-points="W3sieCI6NjI2LjMyOTQwMjA0MzI2OTMsInkiOjMxOH0seyJ4Ijo3MDUuMzE2NDA2MjUsInkiOjM0M30seyJ4Ijo3MDUuMzE2NDA2MjUsInkiOjM5NX0seyJ4Ijo3MDUuMzE2NDA2MjUsInkiOjQ0N30seyJ4Ijo3MDUuMzE2NDA2MjUsInkiOjUxMX0seyJ4Ijo3MDUuMzE2NDA2MjUsInkiOjU4N30seyJ4Ijo3MDUuMzE2NDA2MjUsInkiOjY1MX0seyJ4Ijo3MDUuMzE2NDA2MjUsInkiOjcxNX0seyJ4Ijo3MDUuMzE2NDA2MjUsInkiOjc3OX0seyJ4Ijo3MDUuMzE2NDA2MjUsInkiOjg0M30seyJ4Ijo3NDIuMDE2MDUyMjQ2MDkzOCwieSI6ODgwfV0=" marker-end="url(#my-svg_flowchart-v2-pointEnd)"/><path d="M529.973,421.535L545.27,425.779C560.566,430.024,591.16,438.512,606.457,453.423C621.754,468.333,621.754,489.667,621.754,513C621.754,536.333,621.754,561.667,621.754,585C621.754,608.333,621.754,629.667,621.754,651C621.754,672.333,621.754,693.667,621.754,715C621.754,736.333,621.754,757.667,621.754,779C621.754,800.333,621.754,821.667,635.311,838.234C648.868,854.801,675.982,866.602,689.539,872.503L703.095,878.404" id="L_B04_X19_0" class="edge-thickness-normal edge-pattern-dotted edge-thickness-normal edge-pattern-solid flowchart-link" style=";" data-edge="true" data-et="edge" data-id="L_B04_X19_0" data-points="W3sieCI6NTI5Ljk3MjY1NjI1LCJ5Ijo0MjEuNTM1Mzg5NzQ1NzI3NH0seyJ4Ijo2MjEuNzUzOTA2MjUsInkiOjQ0N30seyJ4Ijo2MjEuNzUzOTA2MjUsInkiOjUxMX0seyJ4Ijo2MjEuNzUzOTA2MjUsInkiOjU4N30seyJ4Ijo2MjEuNzUzOTA2MjUsInkiOjY1MX0seyJ4Ijo2MjEuNzUzOTA2MjUsInkiOjcxNX0seyJ4Ijo2MjEuNzUzOTA2MjUsInkiOjc3OX0seyJ4Ijo2MjEuNzUzOTA2MjUsInkiOjg0M30seyJ4Ijo3MDYuNzYzMTIyNTU4NTkzOCwieSI6ODgwfV0=" marker-end="url(#my-svg_flowchart-v2-pointEnd)"/><path d="M483.042,550L490.744,556.167C498.446,562.333,513.85,574.667,521.552,591.5C529.254,608.333,529.254,629.667,529.254,651C529.254,672.333,529.254,693.667,529.254,715C529.254,736.333,529.254,757.667,529.254,779C529.254,800.333,529.254,821.667,556.844,839.705C584.433,857.743,639.613,872.485,667.202,879.856L694.792,887.228" id="L_B05_X19_0" class="edge-thickness-normal edge-pattern-dotted edge-thickness-normal edge-pattern-solid flowchart-link" style=";" data-edge="true" data-et="edge" data-id="L_B05_X19_0" data-points="W3sieCI6NDgzLjA0MTk0MDc4OTQ3MzcsInkiOjU1MH0seyJ4Ijo1MjkuMjUzOTA2MjUsInkiOjU4N30seyJ4Ijo1MjkuMjUzOTA2MjUsInkiOjY1MX0seyJ4Ijo1MjkuMjUzOTA2MjUsInkiOjcxNX0seyJ4Ijo1MjkuMjUzOTA2MjUsInkiOjc3OX0seyJ4Ijo1MjkuMjUzOTA2MjUsInkiOjg0M30seyJ4Ijo2OTguNjU2MjUsInkiOjg4OC4yNjAxNDcwODk5OTg5fV0=" marker-end="url(#my-svg_flowchart-v2-pointEnd)"/><path d="M393.237,678L401.419,684.167C409.602,690.333,425.967,702.667,434.149,719.5C442.332,736.333,442.332,757.667,442.332,779C442.332,800.333,442.332,821.667,484.399,840.58C526.465,859.493,610.598,875.987,652.664,884.233L694.731,892.48" id="L_B06_X19_0" class="edge-thickness-normal edge-pattern-dotted edge-thickness-normal edge-pattern-solid flowchart-link" style=";" data-edge="true" data-et="edge" data-id="L_B06_X19_0" data-points="W3sieCI6MzkzLjIzNjU3MjI2NTYyNSwieSI6Njc4fSx7IngiOjQ0Mi4zMzIwMzEyNSwieSI6NzE1fSx7IngiOjQ0Mi4zMzIwMzEyNSwieSI6Nzc5fSx7IngiOjQ0Mi4zMzIwMzEyNSwieSI6ODQzfSx7IngiOjY5OC42NTYyNSwieSI6ODkzLjI0OTY2Nzk2MjkwNzZ9XQ==" marker-end="url(#my-svg_flowchart-v2-pointEnd)"/><path d="M174.905,806L190.073,812.167C205.241,818.333,235.578,830.667,322.208,845.928C408.839,861.189,551.764,879.379,623.226,888.474L694.688,897.568" id="L_B07_X19_0" class="edge-thickness-normal edge-pattern-dotted edge-thickness-normal edge-pattern-solid flowchart-link" style=";" data-edge="true" data-et="edge" data-id="L_B07_X19_0" data-points="W3sieCI6MTc0LjkwNDU0MTAxNTYyNSwieSI6ODA2fSx7IngiOjI2NS45MTQwNjI1LCJ5Ijo4NDN9LHsieCI6Njk4LjY1NjI1LCJ5Ijo4OTguMDczNDY3MDQxNTg4M31d" marker-end="url(#my-svg_flowchart-v2-pointEnd)"/><path d="M768.797,934L768.797,940.167C768.797,946.333,768.797,958.667,768.797,975.5C768.797,992.333,768.797,1013.667,768.797,1035C768.797,1056.333,768.797,1077.667,768.797,1099C768.797,1120.333,768.797,1141.667,768.797,1163C768.797,1184.333,768.797,1205.667,778.522,1222.157C788.246,1238.648,807.695,1250.297,817.42,1256.121L827.145,1261.945" id="L_X19_X06_0" class="edge-thickness-normal edge-pattern-solid edge-thickness-normal edge-pattern-solid flowchart-link" style=";" data-edge="true" data-et="edge" data-id="L_X19_X06_0" data-points="W3sieCI6NzY4Ljc5Njg3NSwieSI6OTM0fSx7IngiOjc2OC43OTY4NzUsInkiOjk3MX0seyJ4Ijo3NjguNzk2ODc1LCJ5IjoxMDM1fSx7IngiOjc2OC43OTY4NzUsInkiOjEwOTl9LHsieCI6NzY4Ljc5Njg3NSwieSI6MTE2M30seyJ4Ijo3NjguNzk2ODc1LCJ5IjoxMjI3fSx7IngiOjgzMC41NzYzNzc0NjcxMDUyLCJ5IjoxMjY0fV0=" marker-end="url(#my-svg_flowchart-v2-pointEnd)"/><path d="M698.656,913.303L591.652,922.919C484.648,932.536,270.641,951.768,165.446,966.917C60.252,982.066,63.871,993.132,65.68,998.665L67.489,1004.198" id="L_X19_X20_0" class="edge-thickness-normal edge-pattern-solid edge-thickness-normal edge-pattern-solid flowchart-link" style=";" data-edge="true" data-et="edge" data-id="L_X19_X20_0" data-points="W3sieCI6Njk4LjY1NjI1LCJ5Ijo5MTMuMzAzMzIyODM4NjE5MX0seyJ4Ijo1Ni42MzI4MTI1LCJ5Ijo5NzF9LHsieCI6NjguNzMyNzg4MDg1OTM3NSwieSI6MTAwOH1d" marker-end="url(#my-svg_flowchart-v2-pointEnd)"/><path d="M77.563,1062L77.563,1068.167C77.563,1074.333,77.563,1086.667,77.563,1098.333C77.563,1110,77.563,1121,77.563,1126.5L77.563,1132" id="L_X20_X21_0" class="edge-thickness-normal edge-pattern-solid edge-thickness-normal edge-pattern-solid flowchart-link" style=";" data-edge="true" data-et="edge" data-id="L_X20_X21_0" data-points="W3sieCI6NzcuNTYyNSwieSI6MTA2Mn0seyJ4Ijo3Ny41NjI1LCJ5IjoxMDk5fSx7IngiOjc3LjU2MjUsInkiOjExMzZ9XQ==" marker-end="url(#my-svg_flowchart-v2-pointEnd)"/><path d="M77.563,1190L77.563,1196.167C77.563,1202.333,77.563,1214.667,191.587,1231.426C305.612,1248.185,533.662,1269.369,647.687,1279.961L761.712,1290.554" id="L_X21_X06_0" class="edge-thickness-normal edge-pattern-solid edge-thickness-normal edge-pattern-solid flowchart-link" style=";" data-edge="true" data-et="edge" data-id="L_X21_X06_0" data-points="W3sieCI6NzcuNTYyNSwieSI6MTE5MH0seyJ4Ijo3Ny41NjI1LCJ5IjoxMjI3fSx7IngiOjc2NS42OTUzMTI1LCJ5IjoxMjkwLjkyMzcyMTEyNTY1Nzd9XQ==" marker-end="url(#my-svg_flowchart-v2-pointEnd)"/></g><g class="edgeLabels"><g class="edgeLabel"><g class="label" data-id="L_B01_B02_0" transform="translate(0, 0)"><foreignObject width="0" height="0"><div xmlns="http://www.w3.org/1999/xhtml" class="labelBkg" style="display: table-cell; white-space: nowrap; line-height: 1.5; max-width: 200px; text-align: center;"><span class="edgeLabel"></span></div></foreignObject></g></g><g class="edgeLabel"><g class="label" data-id="L_B02_B03_0" transform="translate(0, 0)"><foreignObject width="0" height="0"><div xmlns="http://www.w3.org/1999/xhtml" class="labelBkg" style="display: table-cell; white-space: nowrap; line-height: 1.5; max-width: 200px; text-align: center;"><span class="edgeLabel"></span></div></foreignObject></g></g><g class="edgeLabel"><g class="label" data-id="L_B03_B04_0" transform="translate(0, 0)"><foreignObject width="0" height="0"><div xmlns="http://www.w3.org/1999/xhtml" class="labelBkg" style="display: table-cell; white-space: nowrap; line-height: 1.5; max-width: 200px; text-align: center;"><span class="edgeLabel"></span></div></foreignObject></g></g><g class="edgeLabel"><g class="label" data-id="L_B04_B05_0" transform="translate(0, 0)"><foreignObject width="0" height="0"><div xmlns="http://www.w3.org/1999/xhtml" class="labelBkg" style="display: table-cell; white-space: nowrap; line-height: 1.5; max-width: 200px; text-align: center;"><span class="edgeLabel"></span></div></foreignObject></g></g><g class="edgeLabel"><g class="label" data-id="L_B05_B06_0" transform="translate(0, 0)"><foreignObject width="0" height="0"><div xmlns="http://www.w3.org/1999/xhtml" class="labelBkg" style="display: table-cell; white-space: nowrap; line-height: 1.5; max-width: 200px; text-align: center;"><span class="edgeLabel"></span></div></foreignObject></g></g><g class="edgeLabel"><g class="label" data-id="L_B06_B07_0" transform="translate(0, 0)"><foreignObject width="0" height="0"><div xmlns="http://www.w3.org/1999/xhtml" class="labelBkg" style="display: table-cell; white-space: nowrap; line-height: 1.5; max-width: 200px; text-align: center;"><span class="edgeLabel"></span></div></foreignObject></g></g><g class="edgeLabel" transform="translate(1101.7109375, 779)"><g class="label" data-id="L_B03_X06_0" transform="translate(-83.0078125, -12)"><foreignObject width="166.015625" height="24"><div xmlns="http://www.w3.org/1999/xhtml" class="labelBkg" style="display: table-cell; white-space: nowrap; line-height: 1.5; max-width: 200px; text-align: center;"><span class="edgeLabel"><p>presentaciones / pagos</p></span></div></foreignObject></g></g><g class="edgeLabel" transform="translate(998.703125, 843)"><g class="label" data-id="L_B04_X06_0" transform="translate(-83.0078125, -12)"><foreignObject width="166.015625" height="24"><div xmlns="http://www.w3.org/1999/xhtml" class="labelBkg" style="display: table-cell; white-space: nowrap; line-height: 1.5; max-width: 200px; text-align: center;"><span class="edgeLabel"><p>presentaciones / pagos</p></span></div></foreignObject></g></g><g class="edgeLabel" transform="translate(325.9765625, 715)"><g class="label" data-id="L_B06_X17_0" transform="translate(-34.4921875, -12)"><foreignObject width="68.984375" height="24"><div xmlns="http://www.w3.org/1999/xhtml" class="labelBkg" style="display: table-cell; white-space: nowrap; line-height: 1.5; max-width: 200px; text-align: center;"><span class="edgeLabel"><p>apelación</p></span></div></foreignObject></g></g><g class="edgeLabel" transform="translate(895.6953125, 971)"><g class="label" data-id="L_B06_X06_0" transform="translate(-58.09375, -12)"><foreignObject width="116.1875" height="24"><div xmlns="http://www.w3.org/1999/xhtml" class="labelBkg" style="display: table-cell; white-space: nowrap; line-height: 1.5; max-width: 200px; text-align: center;"><span class="edgeLabel"><p>otras novedades</p></span></div></foreignObject></g></g><g class="edgeLabel" transform="translate(98.4921875, 587)"><g class="label" data-id="L_B07_B04_0" transform="translate(-90.4921875, -12)"><foreignObject width="180.984375" height="24"><div xmlns="http://www.w3.org/1999/xhtml" class="labelBkg" style="display: table-cell; white-space: nowrap; line-height: 1.5; max-width: 200px; text-align: center;"><span class="edgeLabel"><p>reingreso con nuevo fallo</p></span></div></foreignObject></g></g><g class="edgeLabel" transform="translate(98.4921875, 907)"><g class="label" data-id="L_B07_X20_0" transform="translate(-73.0234375, -12)"><foreignObject width="146.046875" height="24"><div xmlns="http://www.w3.org/1999/xhtml" class="labelBkg" style="display: table-cell; white-space: nowrap; line-height: 1.5; max-width: 200px; text-align: center;"><span class="edgeLabel"><p>resultado conclusivo</p></span></div></foreignObject></g></g><g class="edgeLabel"><g class="label" data-id="L_B01_X19_0" transform="translate(0, 0)"><foreignObject width="0" height="0"><div xmlns="http://www.w3.org/1999/xhtml" class="labelBkg" style="display: table-cell; white-space: nowrap; line-height: 1.5; max-width: 200px; text-align: center;"><span class="edgeLabel"></span></div></foreignObject></g></g><g class="edgeLabel"><g class="label" data-id="L_B02_X19_0" transform="translate(0, 0)"><foreignObject width="0" height="0"><div xmlns="http://www.w3.org/1999/xhtml" class="labelBkg" style="display: table-cell; white-space: nowrap; line-height: 1.5; max-width: 200px; text-align: center;"><span class="edgeLabel"></span></div></foreignObject></g></g><g class="edgeLabel"><g class="label" data-id="L_B03_X19_0" transform="translate(0, 0)"><foreignObject width="0" height="0"><div xmlns="http://www.w3.org/1999/xhtml" class="labelBkg" style="display: table-cell; white-space: nowrap; line-height: 1.5; max-width: 200px; text-align: center;"><span class="edgeLabel"></span></div></foreignObject></g></g><g class="edgeLabel"><g class="label" data-id="L_B04_X19_0" transform="translate(0, 0)"><foreignObject width="0" height="0"><div xmlns="http://www.w3.org/1999/xhtml" class="labelBkg" style="display: table-cell; white-space: nowrap; line-height: 1.5; max-width: 200px; text-align: center;"><span class="edgeLabel"></span></div></foreignObject></g></g><g class="edgeLabel"><g class="label" data-id="L_B05_X19_0" transform="translate(0, 0)"><foreignObject width="0" height="0"><div xmlns="http://www.w3.org/1999/xhtml" class="labelBkg" style="display: table-cell; white-space: nowrap; line-height: 1.5; max-width: 200px; text-align: center;"><span class="edgeLabel"></span></div></foreignObject></g></g><g class="edgeLabel"><g class="label" data-id="L_B06_X19_0" transform="translate(0, 0)"><foreignObject width="0" height="0"><div xmlns="http://www.w3.org/1999/xhtml" class="labelBkg" style="display: table-cell; white-space: nowrap; line-height: 1.5; max-width: 200px; text-align: center;"><span class="edgeLabel"></span></div></foreignObject></g></g><g class="edgeLabel"><g class="label" data-id="L_B07_X19_0" transform="translate(0, 0)"><foreignObject width="0" height="0"><div xmlns="http://www.w3.org/1999/xhtml" class="labelBkg" style="display: table-cell; white-space: nowrap; line-height: 1.5; max-width: 200px; text-align: center;"><span class="edgeLabel"></span></div></foreignObject></g></g><g class="edgeLabel" transform="translate(768.796875, 1099)"><g class="label" data-id="L_X19_X06_0" transform="translate(-32.3203125, -12)"><foreignObject width="64.640625" height="24"><div xmlns="http://www.w3.org/1999/xhtml" class="labelBkg" style="display: table-cell; white-space: nowrap; line-height: 1.5; max-width: 200px; text-align: center;"><span class="edgeLabel"><p>reactivar</p></span></div></foreignObject></g></g><g class="edgeLabel" transform="translate(358.25853, 943.89382)"><g class="label" data-id="L_X19_X20_0" transform="translate(-21.859375, -12)"><foreignObject width="43.71875" height="24"><div xmlns="http://www.w3.org/1999/xhtml" class="labelBkg" style="display: table-cell; white-space: nowrap; line-height: 1.5; max-width: 200px; text-align: center;"><span class="edgeLabel"><p>cerrar</p></span></div></foreignObject></g></g><g class="edgeLabel"><g class="label" data-id="L_X20_X21_0" transform="translate(0, 0)"><foreignObject width="0" height="0"><div xmlns="http://www.w3.org/1999/xhtml" class="labelBkg" style="display: table-cell; white-space: nowrap; line-height: 1.5; max-width: 200px; text-align: center;"><span class="edgeLabel"></span></div></foreignObject></g></g><g class="edgeLabel" transform="translate(77.5625, 1227)"><g class="label" data-id="L_X21_X06_0" transform="translate(-41.21875, -12)"><foreignObject width="82.4375" height="24"><div xmlns="http://www.w3.org/1999/xhtml" class="labelBkg" style="display: table-cell; white-space: nowrap; line-height: 1.5; max-width: 200px; text-align: center;"><span class="edgeLabel"><p>desarchivar</p></span></div></foreignObject></g></g></g><g class="nodes"><g class="node default" id="flowchart-B01-0" transform="translate(808.796875, 59)"><rect class="basic label-container" style="" x="-130" y="-51" width="260" height="102"/><g class="label" style="" transform="translate(-100, -36)"><rect/><foreignObject width="200" height="72"><div xmlns="http://www.w3.org/1999/xhtml" style="display: table; white-space: break-spaces; line-height: 1.5; max-width: 200px; text-align: center; width: 200px;"><span class="nodeLabel"><p>Labradas / Enriquecimiento / Preparación acta</p></span></div></foreignObject></g></g><g class="node default" id="flowchart-B02-1" transform="translate(693.421875, 187)"><rect class="basic label-container" style="" x="-104.703125" y="-27" width="209.40625" height="54"/><g class="label" style="" transform="translate(-74.703125, -12)"><rect/><foreignObject width="149.40625" height="24"><div xmlns="http://www.w3.org/1999/xhtml" style="display: table-cell; white-space: nowrap; line-height: 1.5; max-width: 200px; text-align: center;"><span class="nodeLabel"><p>Notificación del acta</p></span></div></foreignObject></g></g><g class="node default" id="flowchart-B03-2" transform="translate(541.0234375, 291)"><rect class="basic label-container" style="" x="-117.3984375" y="-27" width="234.796875" height="54"/><g class="label" style="" transform="translate(-87.3984375, -12)"><rect/><foreignObject width="174.796875" height="24"><div xmlns="http://www.w3.org/1999/xhtml" style="display: table-cell; white-space: nowrap; line-height: 1.5; max-width: 200px; text-align: center;"><span class="nodeLabel"><p>Acta notificada / espera</p></span></div></foreignObject></g></g><g class="node default" id="flowchart-B04-3" transform="translate(434.33203125, 395)"><rect class="basic label-container" style="" x="-95.640625" y="-27" width="191.28125" height="54"/><g class="label" style="" transform="translate(-65.640625, -12)"><rect/><foreignObject width="131.28125" height="24"><div xmlns="http://www.w3.org/1999/xhtml" style="display: table-cell; white-space: nowrap; line-height: 1.5; max-width: 200px; text-align: center;"><span class="nodeLabel"><p>Pendiente de fallo</p></span></div></foreignObject></g></g><g class="node default" id="flowchart-B05-4" transform="translate(434.33203125, 511)"><rect class="basic label-container" style="" x="-130" y="-39" width="260" height="78"/><g class="label" style="" transform="translate(-100, -24)"><rect/><foreignObject width="200" height="48"><div xmlns="http://www.w3.org/1999/xhtml" style="display: table; white-space: break-spaces; line-height: 1.5; max-width: 200px; text-align: center; width: 200px;"><span class="nodeLabel"><p>Preparación y notificación del fallo</p></span></div></foreignObject></g></g><g class="node default" id="flowchart-B06-5" transform="translate(357.41015625, 651)"><rect class="basic label-container" style="" x="-118.84375" y="-27" width="237.6875" height="54"/><g class="label" style="" transform="translate(-88.84375, -12)"><rect/><foreignObject width="177.6875" height="24"><div xmlns="http://www.w3.org/1999/xhtml" style="display: table-cell; white-space: nowrap; line-height: 1.5; max-width: 200px; text-align: center;"><span class="nodeLabel"><p>Fallo notificado / espera</p></span></div></foreignObject></g></g><g class="node default" id="flowchart-B07-6" transform="translate(108.4921875, 779)"><rect class="basic label-container" style="" x="-87.1328125" y="-27" width="174.265625" height="54"/><g class="label" style="" transform="translate(-57.1328125, -12)"><rect/><foreignObject width="114.265625" height="24"><div xmlns="http://www.w3.org/1999/xhtml" style="display: table-cell; white-space: nowrap; line-height: 1.5; max-width: 200px; text-align: center;"><span class="nodeLabel"><p>Gestión externa</p></span></div></foreignObject></g></g><g class="node default" id="flowchart-X06-7" transform="translate(895.6953125, 1303)"><rect class="basic label-container" style="" x="-130" y="-39" width="260" height="78"/><g class="label" style="" transform="translate(-100, -24)"><rect/><foreignObject width="200" height="48"><div xmlns="http://www.w3.org/1999/xhtml" style="display: table; white-space: break-spaces; line-height: 1.5; max-width: 200px; text-align: center; width: 200px;"><span class="nodeLabel"><p>Análisis / presentaciones / pagos</p></span></div></foreignObject></g></g><g class="node default" id="flowchart-X17-8" transform="translate(325.9765625, 779)"><rect class="basic label-container" style="" x="-80.3515625" y="-27" width="160.703125" height="54"/><g class="label" style="" transform="translate(-50.3515625, -12)"><rect/><foreignObject width="100.703125" height="24"><div xmlns="http://www.w3.org/1999/xhtml" style="display: table-cell; white-space: nowrap; line-height: 1.5; max-width: 200px; text-align: center;"><span class="nodeLabel"><p>Con apelación</p></span></div></foreignObject></g></g><g class="node default" id="flowchart-X19-9" transform="translate(768.796875, 907)"><rect class="basic label-container" style="" x="-70.140625" y="-27" width="140.28125" height="54"/><g class="label" style="" transform="translate(-40.140625, -12)"><rect/><foreignObject width="80.28125" height="24"><div xmlns="http://www.w3.org/1999/xhtml" style="display: table-cell; white-space: nowrap; line-height: 1.5; max-width: 200px; text-align: center;"><span class="nodeLabel"><p>Paralizadas</p></span></div></foreignObject></g></g><g class="node default" id="flowchart-X20-10" transform="translate(77.5625, 1035)"><rect class="basic label-container" style="" x="-61.46875" y="-27" width="122.9375" height="54"/><g class="label" style="" transform="translate(-31.46875, -12)"><rect/><foreignObject width="62.9375" height="24"><div xmlns="http://www.w3.org/1999/xhtml" style="display: table-cell; white-space: nowrap; line-height: 1.5; max-width: 200px; text-align: center;"><span class="nodeLabel"><p>Cerradas</p></span></div></foreignObject></g></g><g class="node default" id="flowchart-X21-11" transform="translate(77.5625, 1163)"><rect class="basic label-container" style="" x="-56.65625" y="-27" width="113.3125" height="54"/><g class="label" style="" transform="translate(-26.65625, -12)"><rect/><foreignObject width="53.3125" height="24"><div xmlns="http://www.w3.org/1999/xhtml" style="display: table-cell; white-space: nowrap; line-height: 1.5; max-width: 200px; text-align: center;"><span class="nodeLabel"><p>Archivo</p></span></div></foreignObject></g></g></g></g></g></svg>